<svg xmlns="http://www.w3.org/2000/svg" width="512" height="512" viewBox="0 0 512 512">
    <path fill="currentColor"
          d="M13.489 11.717v488.566H48.64V512H0V0h48.64v11.717zm150.252 154.88v24.714h.69c6.597-9.452 14.572-16.739 23.828-21.859 9.255-5.218 19.987-7.778 32-7.778 11.52 0 22.055 2.265 31.606 6.695 9.55 4.431 16.738 12.407 21.76 23.631 5.415-7.975 12.8-15.065 22.055-21.169 9.255-6.105 20.283-9.157 32.985-9.157 9.649 0 18.609 1.181 26.88 3.545 8.27 2.362 15.261 6.104 21.169 11.322 5.907 5.219 10.437 11.914 13.785 20.284 3.249 8.369 4.922 18.412 4.922 30.227v122.191h-50.116V245.76c0-6.105-.197-11.914-.69-17.329-.492-5.416-1.772-10.142-3.84-14.08-2.166-4.037-5.218-7.188-9.354-9.551-4.135-2.363-9.747-3.545-16.738-3.545-7.089 0-12.8 1.379-17.132 4.038-4.332 2.756-7.779 6.202-10.24 10.633-2.462 4.333-4.136 9.255-4.923 14.868-.788 5.514-1.28 11.126-1.28 16.738v101.711H230.99v-102.4c0-5.415-.098-10.732-.393-16.05a44.253 44.253 0 00-3.052-14.67c-1.773-4.43-4.726-8.074-8.862-10.732-4.135-2.659-10.142-4.037-18.215-4.037-2.363 0-5.514.492-9.354 1.575-3.84 1.083-7.68 3.052-11.323 6.007-3.643 2.953-6.794 7.187-9.354 12.7-2.56 5.515-3.84 12.8-3.84 21.76v105.945H116.48V166.597zm334.77 333.686V11.717H463.36V0H512v512h-48.64v-11.717z"/>
</svg>
